#define left_workspace_triangle_width 18
#define left_workspace_triangle_height 18
static unsigned char left_workspace_triangle_bits[] = {
   0x01, 0x00, 0x00, 0x03, 0x00, 0x00, 0x07, 0x00, 0x00, 0x0f, 0x00, 0x00,
   0x1f, 0x00, 0x00, 0x3f, 0x00, 0x00, 0x7f, 0x00, 0x00, 0xff, 0x00, 0x00,
   0xff, 0x01, 0x00, 0xff, 0x03, 0x00, 0xff, 0x07, 0x00, 0xff, 0x0f, 0x00,
   0xff, 0x1f, 0x00, 0xff, 0x3f, 0x00, 0xff, 0x7f, 0x00, 0xff, 0xff, 0x00,
   0xff, 0xff, 0x01, 0xff, 0xff, 0x03 };
