#define ram_width 7
#define ram_height 18
static unsigned char ram_bits[] = {
   0x00, 0x00, 0x00, 0x00, 0x00, 0x00, 0x55, 0x00, 0x7f, 0x7f, 0x00, 0x55,
   0x00, 0x00, 0x00, 0x00, 0x00, 0x00 };
