#define right_triangle_width 18
#define right_triangle_height 18
static unsigned char right_triangle_bits[] = {
   0xff, 0xff, 0x03, 0xff, 0xff, 0x01, 0xff, 0xff, 0x00, 0xff, 0x7f, 0x00,
   0xff, 0x3f, 0x00, 0xff, 0x1f, 0x00, 0xff, 0x0f, 0x00, 0xff, 0x07, 0x00,
   0xff, 0x03, 0x00, 0xff, 0x01, 0x00, 0xff, 0x00, 0x00, 0x7f, 0x00, 0x00,
   0x3f, 0x00, 0x00, 0x1f, 0x00, 0x00, 0x0f, 0x00, 0x00, 0x07, 0x00, 0x00,
   0x03, 0x00, 0x00, 0x01, 0x00, 0x00 };
