#define volume_half_width 12
#define volume_half_height 18
static unsigned char volume_half_bits[] = {
   0x00, 0x00, 0x00, 0x00, 0x00, 0x00, 0x00, 0x00, 0x00, 0x00, 0x40, 0x00,
   0x60, 0x00, 0x7e, 0x01, 0x7e, 0x02, 0x7e, 0x02, 0x7e, 0x01, 0x60, 0x00,
   0x40, 0x00, 0x00, 0x00, 0x00, 0x00, 0x00, 0x00, 0x00, 0x00, 0x00, 0x00 };
