#define volume_muted_width 12
#define volume_muted_height 18
static unsigned char volume_muted_bits[] = {
   0x00, 0x00, 0x00, 0x00, 0x00, 0x00, 0x00, 0x00, 0x02, 0x00, 0x44, 0x00,
   0x68, 0x00, 0x76, 0x00, 0x6e, 0x00, 0x5e, 0x00, 0xbe, 0x00, 0x60, 0x01,
   0x40, 0x02, 0x00, 0x00, 0x00, 0x00, 0x00, 0x00, 0x00, 0x00, 0x00, 0x00 };
