#define volume_full_width 12
#define volume_full_height 18
static unsigned char volume_full_bits[] = {
   0x00, 0x00, 0x00, 0x00, 0x00, 0x00, 0x00, 0x00, 0x00, 0x00, 0x40, 0x02,
   0x60, 0x04, 0x7e, 0x09, 0x7e, 0x0a, 0x7e, 0x0a, 0x7e, 0x09, 0x60, 0x04,
   0x40, 0x02, 0x00, 0x00, 0x00, 0x00, 0x00, 0x00, 0x00, 0x00, 0x00, 0x00 };
